<svg width="29" height="29" viewBox="0 0 29 29" fill="none" xmlns="http://www.w3.org/2000/svg">
<path d="M11.7481 8.12802C12.9725 5.93151 13.5847 4.83325 14.5 4.83325C15.4153 4.83325 16.0275 5.93151 17.2519 8.12801L17.5687 8.69628C17.9167 9.32046 18.0906 9.63255 18.3619 9.83847C18.6331 10.0444 18.971 10.1208 19.6466 10.2737L20.2618 10.4129C22.6395 10.9509 23.8283 11.2198 24.1112 12.1294C24.394 13.0389 23.5835 13.9867 21.9626 15.8822L21.5432 16.3726C21.0826 16.9112 20.8523 17.1805 20.7487 17.5137C20.6451 17.8469 20.6799 18.2062 20.7495 18.9249L20.8129 19.5792C21.058 22.1082 21.1805 23.3727 20.44 23.9348C19.6995 24.4969 18.5864 23.9844 16.3602 22.9594L15.7842 22.6942C15.1516 22.4029 14.8353 22.2573 14.5 22.2573C14.1647 22.2573 13.8484 22.4029 13.2158 22.6942L12.6398 22.9594C10.4136 23.9844 9.30047 24.4969 8.55998 23.9348C7.81949 23.3727 7.94202 22.1082 8.18709 19.5792L8.25049 18.9249C8.32013 18.2062 8.35495 17.8469 8.25134 17.5137C8.14773 17.1805 7.91741 16.9112 7.45679 16.3726L7.03743 15.8822C5.41648 13.9867 4.606 13.0389 4.88884 12.1294C5.17169 11.2198 6.36053 10.9509 8.73822 10.4129L9.35336 10.2737C10.029 10.1208 10.3669 10.0444 10.6381 9.83847C10.9094 9.63255 11.0833 9.32046 11.4313 8.69628L11.7481 8.12802Z" fill="#EC0033" stroke="#EC0033" stroke-width="1.5"/>
</svg>
