<svg width="30" height="30" viewBox="0 0 30 30" fill="none" xmlns="http://www.w3.org/2000/svg">
<path d="M22.2715 19.1369C23.817 17.5914 24.5898 16.8186 24.8774 15.816C25.1649 14.8134 24.9192 13.7485 24.4277 11.6188L24.1443 10.3906C23.7308 8.59881 23.524 7.70292 22.9106 7.08944C22.2971 6.47597 21.4012 6.26922 19.6094 5.85574L18.3812 5.57231C16.2515 5.08083 15.1866 4.83509 14.184 5.12264C13.1814 5.41018 12.4086 6.18295 10.8631 7.72848L9.03348 9.55812C6.34449 12.2471 5 13.5916 5 15.2623C5 16.933 6.34449 18.2775 9.03348 20.9665C11.7225 23.6555 13.067 25 14.7377 25C16.4084 25 17.7529 23.6555 20.4419 20.9665L22.2715 19.1369Z" stroke="#999999" stroke-width="1.5"/>
<circle cx="2" cy="2" r="2" transform="matrix(-0.707107 -0.707107 -0.707107 0.707107 21.2217 11.8789)" stroke="#999999" stroke-width="1.5"/>
<path d="M15.4587 21.4995L8.47974 14.5203" stroke="#999999" stroke-width="1.5" stroke-linecap="round"/>
</svg>
